<?xml version="1.0" encoding="UTF-8" standalone="no"?>
<!-- Created with Inkscape (http://www.inkscape.org/) -->

<svg
   width="210mm"
   height="297mm"
   viewBox="0 0 210 297"
   version="1.1"
   id="svg1"
   xml:space="preserve"
   inkscape:version="1.3.2 (091e20e, 2023-11-25)"
   sodipodi:docname="icons.svg"
   xmlns:inkscape="http://www.inkscape.org/namespaces/inkscape"
   xmlns:sodipodi="http://sodipodi.sourceforge.net/DTD/sodipodi-0.dtd"
   xmlns="http://www.w3.org/2000/svg"
   xmlns:svg="http://www.w3.org/2000/svg"><sodipodi:namedview
     id="namedview1"
     pagecolor="#505050"
     bordercolor="#eeeeee"
     borderopacity="1"
     inkscape:showpageshadow="0"
     inkscape:pageopacity="0"
     inkscape:pagecheckerboard="0"
     inkscape:deskcolor="#505050"
     inkscape:document-units="mm"
     inkscape:zoom="0.54473881"
     inkscape:cx="282.70429"
     inkscape:cy="216.61757"
     inkscape:window-width="1864"
     inkscape:window-height="1136"
     inkscape:window-x="1976"
     inkscape:window-y="27"
     inkscape:window-maximized="1"
     inkscape:current-layer="layer1" /><defs
     id="defs1" /><g
     inkscape:label="Layer 1"
     inkscape:groupmode="layer"
     id="layer1"><path
       id="path1-2"
       style="fill:#000000;stroke-width:3.57765;fill-opacity:0.27861533"
       d="M 25.218611,-1.7691073 A 26.216284,26.216284 0 0 0 -0.99769697,24.447203 26.216284,26.216284 0 0 0 9.2573245,45.163713 L 19.967004,55.9097 30.466967,55.906991 41.574948,44.867832 A 26.216284,26.216284 0 0 0 51.434921,24.447203 26.216284,26.216284 0 0 0 25.218611,-1.7691073 Z"
       inkscape:export-filename="marker.png"
       inkscape:export-xdpi="96"
       inkscape:export-ydpi="96" /><path
       id="path1"
       style="fill:#ffffff;stroke-width:3.41167"
       d="M 25.000024 0 A 25 25 0 0 0 0 25.000024 A 25 25 0 0 0 9.779248 44.755408 L 19.992061 55.002844 L 30.004887 55.00026 L 40.597522 44.473254 A 25 25 0 0 0 50.000049 25.000024 A 25 25 0 0 0 25.000024 0 z " /><circle
       style="fill:#081832;fill-opacity:1;stroke-width:3.18583"
       id="path2"
       cx="25"
       cy="25"
       r="20" /><path
       style="fill:#081832;fill-opacity:1;stroke-width:0.382372"
       d="m 134.94391,22.987047 c -1.23316,-0.158249 -2.12494,-0.799307 -2.5833,-1.857009 -0.1465,-0.338074 -0.27287,-0.814043 -0.33623,-1.266431 -0.0314,-0.223833 -0.0515,-1.164678 -0.0662,-3.090931 l -0.0211,-2.769153 -0.6702,-0.144716 -0.67021,-0.144717 -1.6e-4,-1.135155 -1.7e-4,-1.135159 h 0.69669 0.69668 l 0.009,-1.133003 0.009,-1.1330016 1.62676,-0.260338 c 0.89472,-0.143187 1.63883,-0.260801 1.65357,-0.261363 0.0148,-3.82e-4 0.0268,0.626436 0.0268,1.3933406 v 1.394365 h 1.59101 1.591 v 1.125539 1.125538 l -0.0804,0.01709 c -0.0442,0.0094 -0.69986,0.07438 -1.45693,0.144403 -0.75707,0.07002 -1.43683,0.136449 -1.51057,0.147622 l -0.13407,0.0203 0.001,2.526382 c 0.002,2.77347 0.0107,2.922075 0.20457,3.269456 0.34643,0.620647 1.30913,0.657557 2.50225,0.09594 0.20144,-0.09482 0.41554,-0.207498 0.47578,-0.250396 0.0602,-0.0429 0.1188,-0.06874 0.13013,-0.05742 0.0113,0.01132 0.16919,0.511266 0.35082,1.110989 l 0.33025,1.090407 -0.25457,0.175562 c -0.54062,0.372843 -1.41408,0.738651 -2.13603,0.894586 -0.63885,0.137987 -1.41049,0.179864 -1.97625,0.107263 z m 20.65453,0.0027 c -1.89009,-0.182953 -3.25507,-1.041329 -4.02731,-2.532587 -0.82083,-1.585108 -0.96189,-3.913665 -0.34538,-5.701602 0.30368,-0.880721 0.71691,-1.551734 1.33037,-2.16031 1.03953,-1.031242 2.44481,-1.530669 4.10909,-1.460332 2.42626,0.102537 3.61142,1.252765 4.06686,3.947012 0.0888,0.525425 0.16987,1.473791 0.20011,2.341653 l 0.0221,0.634616 h -3.41667 -3.41668 l 0.0232,0.15195 c 0.0128,0.08357 0.0622,0.288106 0.10973,0.454518 0.24892,0.870424 0.77459,1.384114 1.60193,1.565416 0.39461,0.08647 1.59569,0.08535 2.11565,-0.0019 0.75967,-0.12759 1.53369,-0.381558 1.99245,-0.653757 0.11606,-0.06886 0.22304,-0.112363 0.23773,-0.09667 0.0266,0.02837 0.64172,2.053846 0.64172,2.112942 0,0.06787 -0.54442,0.419997 -0.98321,0.635942 -1.25396,0.617121 -2.83877,0.900933 -4.26171,0.763199 z m 2.29503,-7.318064 c -0.0785,-0.897148 -0.31853,-1.373243 -0.815,-1.6165 -0.29891,-0.146457 -0.57629,-0.192693 -1.00814,-0.168049 -1.01492,0.05793 -1.60852,0.551675 -1.86132,1.548205 -0.048,0.18911 -0.0872,0.381993 -0.0872,0.428635 v 0.08479 h 1.89796 1.89796 z m 6.93634,7.31808 c -0.84881,-0.115913 -1.45835,-0.400183 -1.98632,-0.926358 -0.29205,-0.291057 -0.36594,-0.389866 -0.50863,-0.680178 -0.24515,-0.498766 -0.32652,-0.868589 -0.32644,-1.483749 4e-5,-0.37014 0.0167,-0.560549 0.0638,-0.730869 0.47218,-1.705957 2.42174,-2.740701 5.59489,-2.96952 0.26825,-0.01935 0.60684,-0.03533 0.75243,-0.03548 l 0.2647,-3.18e-4 -0.021,-0.492227 c -0.0628,-1.467487 -0.45984,-1.87968 -1.81334,-1.882364 -0.52183,-0.0011 -0.73332,0.03277 -1.24005,0.198099 -0.37987,0.123954 -0.33781,0.04435 -0.4228,0.800003 -0.031,0.2753 -0.0649,0.544788 -0.0755,0.598863 l -0.0192,0.09832 h -1.12338 c -0.87373,0 -1.12385,-0.0099 -1.12552,-0.04469 -10e-4,-0.02459 -0.0701,-0.748276 -0.15305,-1.608215 l -0.15091,-1.563519 0.43013,-0.176717 c 1.54274,-0.633831 2.98617,-0.932972 4.50177,-0.932972 1.43095,0 2.41213,0.275373 3.17716,0.891672 0.62613,0.504414 1.00207,1.197 1.19468,2.20096 0.0542,0.282645 0.0642,0.680106 0.0816,3.268087 l 0.0199,2.94631 0.57205,0.149091 0.57205,0.149091 0.01,0.971504 0.01,0.971504 h -1.96212 -1.96212 l -0.117,-0.589928 c -0.0643,-0.324458 -0.12559,-0.589923 -0.13608,-0.589923 -0.0105,0 -0.12495,0.10147 -0.25434,0.225488 -0.59515,0.570434 -1.36045,0.964082 -2.27318,1.169259 -0.37708,0.08477 -1.19437,0.120501 -1.57313,0.06878 z m 2.43427,-2.550762 c 0.34249,-0.06901 0.83534,-0.259336 1.14997,-0.444094 l 0.25921,-0.152215 V 19.0344 18.226104 l -0.68825,0.02191 c -1.89712,0.06035 -2.81531,0.478856 -2.82708,1.288574 -0.005,0.33063 0.0365,0.475893 0.1807,0.635502 0.15734,0.174155 0.27312,0.236754 0.55907,0.302265 0.26375,0.06043 0.98348,0.04181 1.36638,-0.03533 z m 31.78135,2.563694 c -0.7304,-0.05017 -1.62202,-0.222725 -2.21251,-0.428188 -0.5611,-0.195236 -1.23765,-0.556493 -1.23765,-0.660865 0,-0.06821 0.2489,-2.724576 0.26996,-2.881177 l 0.0204,-0.151951 h 1.04795 1.04796 l 0.0239,0.151951 c 0.0131,0.08357 0.0662,0.374117 0.11797,0.64565 l 0.0941,0.4937 0.1458,0.08415 c 0.30669,0.177 0.60567,0.2406 1.2225,0.260047 0.61889,0.0195 0.91774,-0.01365 1.2529,-0.139053 0.60049,-0.224675 0.77637,-0.849635 0.3545,-1.259648 -0.27197,-0.264315 -0.56734,-0.382185 -1.75854,-0.701741 -0.43483,-0.11665 -0.94163,-0.266773 -1.12622,-0.333608 -1.45204,-0.525727 -2.26306,-1.333316 -2.51927,-2.508597 -0.0841,-0.385779 -0.0838,-1.180184 7.6e-4,-1.573132 0.31239,-1.454253 1.50488,-2.434444 3.34499,-2.749476 1.37651,-0.23566 2.73483,-0.123239 4.05797,0.33586 0.46542,0.161491 1.05471,0.457753 1.05471,0.530246 0,0.102033 -0.25042,2.914317 -0.27042,3.03694 l -0.019,0.116735 -1.0438,-0.0095 -1.0438,-0.0095 -0.13304,-0.625675 c -0.0732,-0.344124 -0.13363,-0.629431 -0.13434,-0.634015 -0.005,-0.03426 -0.38441,-0.189454 -0.57333,-0.234696 -0.3671,-0.08791 -0.63917,-0.105023 -1.01085,-0.06358 -0.80607,0.08988 -1.17185,0.408029 -1.12599,0.979339 0.0292,0.363723 0.23244,0.618222 0.66148,0.828305 0.31159,0.15257 0.53069,0.220839 1.55341,0.484037 1.058,0.272276 1.55795,0.45123 1.99581,0.71439 0.71104,0.42735 1.11066,0.932318 1.34493,1.69949 0.0926,0.303244 0.0979,0.358829 0.0983,1.035505 3.8e-4,0.628173 -0.009,0.749813 -0.0785,1.001081 -0.41834,1.515772 -1.6916,2.366982 -3.82015,2.553882 -0.40386,0.03544 -1.18395,0.04181 -1.60273,0.01304 z m -75.49245,-0.03246 c -1.74041,-0.120554 -3.13174,-0.472195 -3.99533,-1.009775 l -0.15188,-0.09455 -7e-5,-2.011104 -6e-5,-2.011108 h 1.26923 1.26923 l 0.002,0.08045 c 0.001,0.04424 0.0455,0.474562 0.0983,0.956262 l 0.0961,0.87582 0.17874,0.09676 c 0.23327,0.126274 0.62922,0.231048 1.06625,0.282148 0.45742,0.05348 1.36655,0.02398 1.65096,-0.05355 0.52414,-0.142915 0.90928,-0.427113 1.08399,-0.799884 0.087,-0.18566 0.0957,-0.242424 0.0942,-0.615676 -0.002,-0.332767 -0.0161,-0.447153 -0.0774,-0.599938 -0.23437,-0.584318 -0.77016,-0.960319 -1.87522,-1.315983 -1.46744,-0.47229 -1.75397,-0.570766 -2.09405,-0.719704 -1.50353,-0.658468 -2.28867,-1.681943 -2.49444,-3.251672 -0.0684,-0.521529 -0.0684,-1.133259 -1.1e-4,-1.524919 0.28028,-1.6072116 1.55642,-2.9148936 3.35255,-3.4353896 0.58041,-0.168194 0.92342,-0.212641 1.65301,-0.21419 0.78553,-0.0015 1.20441,0.05224 2.03394,0.261764 0.65301,0.164937 1.11143,0.331567 1.69331,0.615501 l 0.43797,0.213715 v 1.8033926 1.803388 h -1.26682 c -1.17597,0 -1.26808,-0.0045 -1.28438,-0.06257 -0.01,-0.03441 -0.0772,-0.39239 -0.15002,-0.795502 -0.0793,-0.438933 -0.1545,-0.75819 -0.18738,-0.795888 -0.18623,-0.213483 -1.26661,-0.316379 -1.8289,-0.17419 -0.61922,0.156589 -0.96365,0.499489 -1.07616,1.071376 -0.12993,0.66041 0.15144,1.239753 0.78404,1.614374 0.32455,0.192196 0.74162,0.347095 1.68535,0.625935 1.05132,0.310632 1.37218,0.42168 1.8094,0.6262 1.09584,0.512619 1.73302,1.186917 2.06825,2.188743 0.19371,0.578907 0.24293,0.985529 0.22187,1.83316 -0.0148,0.596557 -0.0326,0.77727 -0.10707,1.090464 -0.38633,1.623868 -1.30887,2.630723 -2.88354,3.147082 -0.65345,0.214277 -1.17111,0.288908 -2.09287,0.301737 -0.43261,0.006 -0.87506,0.0048 -0.98321,-0.0027 z m -16.72395,-1.415854 0.009,-1.151724 0.6078,-0.15132 c 0.33429,-0.08323 0.61986,-0.152195 0.63461,-0.153262 0.0148,-0.0011 0.0268,-2.155924 0.0268,-4.788578 v -4.786659 l -0.63461,-0.158226 -0.63462,-0.158229 -0.009,-1.1510156 -0.009,-1.151016 h 5.50645 5.50646 v 2.1094236 2.109427 h -1.19519 -1.19519 l -0.0389,-0.187702 c -0.0214,-0.103237 -0.0912,-0.461213 -0.15517,-0.795506 l -0.11631,-0.607799 -1.7959,-0.0093 -1.79591,-0.0093 v 1.644968 1.644968 h 2.09155 2.09155 v 1.358614 1.358613 h -2.09155 -2.09155 v 1.78765 1.78765 h 1.94466 1.94467 l 0.0188,-0.08044 c 0.0103,-0.04424 0.079,-0.446465 0.15253,-0.893825 l 0.13377,-0.813382 h 1.20996 1.20995 v 2.198811 2.198807 h -5.66734 -5.66734 z m 33.49211,0.174185 v -0.977538 l 0.58992,-0.153277 0.58993,-0.153278 v -3.211765 -3.211737 l -0.13408,-0.03893 c -0.0737,-0.02141 -0.33518,-0.09104 -0.58098,-0.154731 l -0.44691,-0.115801 -0.009,-1.13381 c -0.007,-0.894811 8e-5,-1.133863 0.0358,-1.13405 0.0249,-1.34e-4 0.94547,-0.048 2.0458,-0.106376 1.28767,-0.06831 2.00831,-0.09366 2.02224,-0.07113 0.0119,0.01927 0.0597,0.355109 0.10622,0.746337 l 0.0846,0.711318 0.25288,-0.21381 c 1.16232,-0.982758 2.69145,-1.515696 3.88968,-1.355643 0.35738,0.04774 0.74089,0.141237 1.0379,0.253042 0.17434,0.06563 0.20559,0.09089 0.20559,0.16621 0,0.09107 -0.51825,4.335085 -0.55507,4.545535 l -0.0204,0.116742 -1.02618,-0.0095 -1.02618,-0.0095 -0.0959,-1.090464 c -0.0527,-0.599758 -0.097,-1.128888 -0.0983,-1.175843 -0.002,-0.08448 -0.005,-0.08512 -0.27225,-0.06093 -0.57533,0.05214 -1.28367,0.34327 -1.8115,0.74455 l -0.24263,0.184461 v 2.817477 c 0,1.549612 0.0126,2.817477 0.028,2.817477 0.0154,0 0.44578,0.06424 0.95639,0.142763 0.51061,0.07852 0.94848,0.142877 0.97307,0.143011 0.0346,1.95e-4 0.0447,0.220858 0.0447,0.983456 v 0.983209 h -3.2714 -3.2714 z m 34.00109,0 v -0.977538 l 0.58993,-0.153277 0.58992,-0.153278 v -3.211765 -3.211737 l -0.13407,-0.03893 c -0.0737,-0.02141 -0.33518,-0.09104 -0.58099,-0.154731 l -0.44691,-0.115801 -0.009,-1.13381 c -0.007,-0.894811 9e-5,-1.133863 0.0358,-1.13405 0.0248,-1.34e-4 0.94546,-0.048 2.04579,-0.106376 1.26141,-0.06692 2.00845,-0.09344 2.02184,-0.07178 0.0117,0.01889 0.059,0.348325 0.10515,0.732055 0.0461,0.383729 0.0868,0.697691 0.0903,0.697691 0.003,0 0.0856,-0.07371 0.18244,-0.163789 1.2303,-1.144806 3.02448,-1.650424 4.54972,-1.282151 0.3414,0.08243 0.91459,0.371127 1.18892,0.598814 0.26017,0.215933 0.54342,0.571849 0.71686,0.900754 0.0622,0.117984 0.11836,0.220823 0.12476,0.228532 0.006,0.0077 0.16488,-0.132473 0.35215,-0.311507 0.73163,-0.699446 1.77661,-1.245714 2.78966,-1.458317 0.2474,-0.05192 0.45814,-0.06657 0.9117,-0.06338 0.51265,0.0034 0.63676,0.0164 0.94745,0.0976 1.39794,0.365399 2.23148,1.370551 2.50985,3.02657 0.048,0.28567 0.0596,0.803677 0.0728,3.2594 l 0.0157,2.919743 0.27392,0.07295 c 0.15065,0.04012 0.41469,0.107833 0.58675,0.150464 l 0.31284,0.07751 v 0.978819 0.978819 h -2.86024 -2.86024 v -0.977886 -0.977886 l 0.59156,-0.15408 0.59155,-0.154085 -0.0119,-2.756171 c -0.013,-3.029132 -0.009,-2.977263 -0.23491,-3.345151 -0.20529,-0.334908 -0.65954,-0.487731 -1.3475,-0.453336 -0.65584,0.03277 -1.18595,0.225446 -1.72143,0.625606 -0.47759,0.356902 -0.42539,-0.04194 -0.413,3.155555 l 0.0108,2.774599 0.5881,0.152807 0.58811,0.152803 v 0.978613 0.978612 h -2.84236 -2.84236 v -0.983199 c 0,-0.540765 0.005,-0.983208 0.0101,-0.983208 0.0638,0 1.11763,-0.291096 1.14199,-0.315457 0.0198,-0.01981 0.0271,-1.108676 0.0183,-2.727937 -0.0158,-2.888939 -0.0175,-2.917254 -0.2023,-3.279513 -0.10433,-0.204492 -0.32804,-0.38675 -0.56438,-0.459794 -0.2951,-0.09121 -1.08063,-0.0878 -1.40478,0.0061 -0.55142,0.159735 -1.09526,0.451952 -1.4033,0.754029 l -0.13408,0.131483 v 2.797934 2.797934 l 0.58993,0.153278 0.58992,0.153278 v 0.977538 0.977541 h -2.86024 -2.86024 z"
       id="path3"
       inkscape:export-filename="icon.png"
       inkscape:export-xdpi="96"
       inkscape:export-ydpi="96" /><path
       style="fill:#ffffff;fill-opacity:1;stroke-width:0.367811"
       d="m 13.733678,34.907608 -0.413596,-0.04435 v -4.647409 -4.647411 l 1.52039,-0.119208 c 5.964173,-0.46765 9.281765,-2.144678 9.281765,-4.691892 0,-0.25757 -0.07021,-0.766627 -0.156013,-1.131235 -0.942543,-4.005043 3.062255,-6.683352 9.595733,-6.417384 1.41611,0.05764 3.406181,0.281809 3.607735,0.406374 0.04967,0.03071 0.09031,0.622528 0.09031,1.315183 v 1.259373 H 35.80729 c -3.804976,0 -5.455944,0.799956 -5.079041,2.460986 0.112905,0.497608 0.204281,0.68199 1.312302,2.648142 0.610147,1.082683 0.90262,1.871229 0.995661,2.684444 0.325871,2.848111 -2.773983,6.682652 -7.108237,8.792942 -2.87341,1.399024 -5.957579,2.077242 -9.73704,2.141201 -1.124009,0.01902 -2.22977,0.01471 -2.457247,-0.0098 z m 3.950988,-2.321042 c 0.648068,-0.301692 0.780045,-0.3016 1.377101,0.0011 0.303169,0.153634 0.643472,0.243292 0.923359,0.243292 0.378359,0 0.459476,-0.0356 0.554099,-0.243292 0.151762,-0.333075 -0.02828,-0.72952 -0.3319,-0.730826 -0.121569,-3.69e-4 -0.455894,-0.110269 -0.742927,-0.243892 -0.287034,-0.133614 -0.681166,-0.268278 -0.87585,-0.299239 -0.341401,-0.0543 -0.460238,-0.02361 -1.579618,0.407946 -0.445892,0.171908 -0.448414,0.17169 -0.924509,-0.07527 -0.262568,-0.136194 -0.645239,-0.278393 -0.850382,-0.315987 -0.671262,-0.123022 -1.088138,0.387684 -0.682416,0.836001 0.08858,0.09788 0.252805,0.179339 0.364939,0.181011 0.112141,0.0018 0.422841,0.11076 0.690463,0.2424 0.657575,0.323473 1.378432,0.322397 2.077641,-0.003 z m 6.096958,-2.044853 c 0.611633,-0.300872 0.813709,-0.300563 1.411094,0.0022 0.647082,0.327904 1.205324,0.327702 1.42038,-3.66e-4 0.221415,-0.337928 0.03779,-0.59271 -0.593416,-0.823358 -0.267493,-0.09775 -0.683422,-0.251987 -0.924279,-0.342755 -0.541978,-0.204252 -1.022662,-0.150073 -1.791605,0.201969 l -0.571669,0.26172 -0.497075,-0.217689 c -0.877253,-0.384182 -1.192375,-0.438192 -1.475255,-0.252841 -0.196209,0.128563 -0.24328,0.229735 -0.219671,0.472155 0.02413,0.247676 0.08763,0.325333 0.321997,0.393713 0.160573,0.04685 0.510913,0.187301 0.778536,0.312112 0.677367,0.315914 1.490351,0.313379 2.140963,-0.0067 z m -3.609467,-2.633907 0.571667,-0.261719 0.497076,0.217688 c 0.87725,0.384183 1.192374,0.43819 1.475254,0.252841 0.196209,-0.128563 0.24328,-0.229736 0.219671,-0.472155 -0.02413,-0.247693 -0.08762,-0.325318 -0.321999,-0.393658 -0.160573,-0.04681 -0.52283,-0.189937 -0.805017,-0.318037 -0.699027,-0.317325 -1.42634,-0.31367 -2.065826,0.01036 -0.597914,0.302984 -0.792469,0.302857 -1.445083,-9.22e-4 -0.695547,-0.323795 -1.222154,-0.323446 -1.434708,9.22e-4 -0.147674,0.225372 -0.147674,0.261209 0,0.486583 0.08767,0.133813 0.235038,0.244252 0.327473,0.245428 0.09243,0.0012 0.365126,0.09421 0.605984,0.206728 0.943372,0.440725 1.457201,0.446329 2.375508,0.02593 z m 6.39766,-1.839556 c 0.646417,-0.300924 0.71988,-0.301027 1.362436,-0.002 0.555526,0.258611 1.233826,0.319258 1.425622,0.127455 0.06423,-0.06423 0.116773,-0.230642 0.116773,-0.369803 0,-0.300847 -0.161717,-0.486584 -0.423671,-0.486584 -0.104566,0 -0.435191,-0.118099 -0.73474,-0.262437 -0.73177,-0.352611 -1.424153,-0.351252 -2.122792,0.0042 -0.620051,0.315439 -0.69462,0.317147 -1.271589,0.02914 -0.846668,-0.42264 -1.340734,-0.409138 -1.582846,0.04325 -0.152434,0.284816 0.115266,0.670993 0.469185,0.676857 0.145967,0.0024 0.462445,0.109925 0.703302,0.238895 0.605976,0.324483 1.362583,0.324831 2.058315,9.23e-4 z"
       id="path5" /><circle
       style="fill:#081832;fill-opacity:1;stroke-width:3.18583"
       id="path2-1"
       cx="89.132721"
       cy="-38.312603"
       r="20"
       inkscape:export-filename="path2-1.png"
       inkscape:export-xdpi="96"
       inkscape:export-ydpi="96" /><path
       style="fill:#ffffff;fill-opacity:1;stroke-width:0.367811"
       d="m 77.866399,-28.404996 -0.413596,-0.04435 v -4.647409 -4.647411 l 1.52039,-0.119208 c 5.964173,-0.46765 9.281765,-2.144678 9.281765,-4.691892 0,-0.25757 -0.07021,-0.766627 -0.156013,-1.131235 -0.942543,-4.005043 3.062255,-6.683352 9.595733,-6.417384 1.41611,0.05764 3.406182,0.281809 3.607732,0.406374 0.0497,0.03071 0.0903,0.622528 0.0903,1.315183 v 1.259373 h -1.452709 c -3.804976,0 -5.455944,0.799956 -5.079041,2.460986 0.112905,0.497608 0.204281,0.68199 1.312302,2.648142 0.610147,1.082683 0.90262,1.871229 0.995661,2.684444 0.325871,2.848111 -2.773983,6.682652 -7.108237,8.792942 -2.87341,1.399024 -5.957579,2.077242 -9.73704,2.141201 -1.124009,0.01902 -2.22977,0.01471 -2.457247,-0.0098 z m 3.950988,-2.321042 c 0.648068,-0.301692 0.780045,-0.3016 1.377101,0.0011 0.303169,0.153634 0.643472,0.243292 0.923359,0.243292 0.378359,0 0.459476,-0.0356 0.554099,-0.243292 0.151762,-0.333075 -0.02828,-0.72952 -0.3319,-0.730826 -0.121569,-3.69e-4 -0.455894,-0.110269 -0.742927,-0.243892 -0.287034,-0.133614 -0.681166,-0.268278 -0.87585,-0.299239 -0.341401,-0.0543 -0.460238,-0.02361 -1.579618,0.407946 -0.445892,0.171908 -0.448414,0.17169 -0.924509,-0.07527 -0.262568,-0.136194 -0.645239,-0.278393 -0.850382,-0.315987 -0.671262,-0.123022 -1.088138,0.387684 -0.682416,0.836001 0.08858,0.09788 0.252805,0.179339 0.364939,0.181011 0.112141,0.0018 0.422841,0.11076 0.690463,0.2424 0.657575,0.323473 1.378432,0.322397 2.077641,-0.003 z m 6.096958,-2.044853 c 0.611633,-0.300872 0.813709,-0.300563 1.411094,0.0022 0.647082,0.327904 1.205324,0.327702 1.42038,-3.66e-4 0.221415,-0.337928 0.03779,-0.59271 -0.593416,-0.823358 -0.267493,-0.09775 -0.683422,-0.251987 -0.924279,-0.342755 -0.541978,-0.204252 -1.022662,-0.150073 -1.791605,0.201969 l -0.571669,0.26172 -0.497075,-0.217689 c -0.877253,-0.384182 -1.192375,-0.438192 -1.475255,-0.252841 -0.196209,0.128563 -0.24328,0.229735 -0.219671,0.472155 0.02413,0.247676 0.08763,0.325333 0.321997,0.393713 0.160573,0.04685 0.510913,0.187301 0.778536,0.312112 0.677367,0.315914 1.490351,0.313379 2.140963,-0.0067 z m -3.609467,-2.633907 0.571667,-0.261719 0.497076,0.217688 c 0.87725,0.384183 1.192374,0.43819 1.475254,0.252841 0.196209,-0.128563 0.24328,-0.229736 0.219671,-0.472155 -0.02413,-0.247693 -0.08762,-0.325318 -0.321999,-0.393658 -0.160573,-0.04681 -0.52283,-0.189937 -0.805017,-0.318037 -0.699027,-0.317325 -1.42634,-0.31367 -2.065826,0.01036 -0.597914,0.302984 -0.792469,0.302857 -1.445083,-9.22e-4 -0.695547,-0.323795 -1.222154,-0.323446 -1.434708,9.22e-4 -0.147674,0.225372 -0.147674,0.261209 0,0.486583 0.08767,0.133813 0.235038,0.244252 0.327473,0.245428 0.09243,0.0012 0.365126,0.09421 0.605984,0.206728 0.943372,0.440725 1.457201,0.446329 2.375508,0.02593 z m 6.39766,-1.839556 c 0.646417,-0.300924 0.71988,-0.301027 1.362436,-0.002 0.555526,0.258611 1.233826,0.319258 1.425622,0.127455 0.06423,-0.06423 0.116773,-0.230642 0.116773,-0.369803 0,-0.300847 -0.161717,-0.486584 -0.423671,-0.486584 -0.104566,0 -0.435191,-0.118099 -0.73474,-0.262437 -0.73177,-0.352611 -1.424153,-0.351252 -2.122792,0.0042 -0.620051,0.315439 -0.69462,0.317147 -1.271589,0.02914 -0.846668,-0.42264 -1.340734,-0.409138 -1.582846,0.04325 -0.152434,0.284816 0.115266,0.670993 0.469185,0.676857 0.145967,0.0024 0.462445,0.109925 0.703302,0.238895 0.605976,0.324483 1.362583,0.324831 2.058315,9.23e-4 z"
       id="path5-2" /></g></svg>
